<?xml version="1.0" encoding="utf-8"?>
<!-- Generator: Adobe Illustrator 23.1.1, SVG Export Plug-In . SVG Version: 6.00 Build 0)  -->
<svg version="1.1" id="Layer_1" xmlns="http://www.w3.org/2000/svg" xmlns:xlink="http://www.w3.org/1999/xlink" x="0px" y="0px"
	 viewBox="0 0 47.5 57.4" style="enable-background:new 0 0 47.5 57.4;" xml:space="preserve">
<g>
	<path d="M47.5,56.6l-3.3-39.5l-0.1-0.6l-0.6,0l-9.2,0v-5.9C34.3,4.7,29.6,0,23.8,0S13.2,4.7,13.2,10.6v5.9H4H3.4l-0.1,0.6L0.1,56.6
		L0,57.4h0.8h46h0.8L47.5,56.6z M13.9,27.8h3.3h0.7v-0.7V10.6c0-3.2,2.6-5.9,5.9-5.9c3.2,0,5.9,2.6,5.9,5.9v16.5v0.7h0.7h3.3h0.7
		v-0.7v-5.9h5.5l2.6,31.5H5.1l2.6-31.5h5.5v5.9v0.7H13.9z"/>
	<polygon points="27,21.2 27.7,21.2 27.7,20.5 27.7,17.2 27.7,16.5 27,16.5 20.5,16.5 19.8,16.5 19.8,17.2 19.8,20.5 19.8,21.2 
		20.5,21.2 	"/>
</g>
</svg>
