<?xml version="1.0" encoding="utf-8"?>
<!-- Generator: Adobe Illustrator 23.1.0, SVG Export Plug-In . SVG Version: 6.00 Build 0)  -->
<svg version="1.1" id="Layer_1" xmlns="http://www.w3.org/2000/svg" xmlns:xlink="http://www.w3.org/1999/xlink" x="0px" y="0px"
	 viewBox="0 0 1080 1370" style="enable-background:new 0 0 1080 1370;" xml:space="preserve">
<style type="text/css">
	.st0{stroke:#000000;stroke-width:4.140393e-02;stroke-miterlimit:10;}
	.st1{stroke:#000000;stroke-width:4.285714e-02;stroke-miterlimit:10;}
	.st2{stroke:#000000;stroke-width:5.017769e-02;stroke-miterlimit:10;}
	.st3{stroke:#000000;stroke-width:5.309142e-02;stroke-miterlimit:10;}
	.st4{fill:none;stroke:#000000;stroke-width:3.2;stroke-miterlimit:10;}
</style>
<ellipse class="st0" cx="730.4" cy="730" rx="2.8" ry="3"/>
<ellipse class="st0" cx="730" cy="730" rx="2.8" ry="3"/>
<ellipse class="st0" cx="869" cy="814" rx="2.8" ry="3"/>
<circle class="st1" cx="963.5" cy="617" r="3"/>
<circle class="st1" cx="864.5" cy="444.5" r="3"/>
<ellipse class="st0" cx="538.6" cy="778.6" rx="2.8" ry="3"/>
<ellipse class="st0" cx="538.2" cy="778.6" rx="2.8" ry="3"/>
<circle class="st1" cx="540.7" cy="433.6" r="3"/>
<ellipse class="st2" cx="662.7" cy="363" rx="3.6" ry="3.4"/>
<ellipse class="st3" cx="348.9" cy="727.1" rx="3.8" ry="3.6"/>
<circle class="st1" cx="350.8" cy="502.2" r="3"/>
<circle class="st1" cx="219" cy="435" r="3"/>
<circle class="st1" cx="218.1" cy="807.7" r="3"/>
<circle class="st1" cx="120.1" cy="612.7" r="3"/>
<ellipse class="st0" cx="538.6" cy="778.6" rx="2.8" ry="3"/>
<circle class="st1" cx="420.9" cy="361.6" r="3"/>
<polygon points="347.7,713.9 349.9,720.1 355.8,717.3 353,723.2 359.2,725.4 353,727.6 355.8,733.5 349.9,730.7 347.7,736.9 
	345.5,730.7 339.5,733.5 342.3,727.6 336.2,725.4 342.3,723.2 339.5,717.3 345.5,720.1 "/>
<polygon points="663.2,355.7 664.6,359.7 668.5,357.9 666.6,361.8 670.7,363.2 666.6,364.6 668.5,368.5 664.6,366.7 663.2,370.7 
	661.7,366.7 657.8,368.5 659.7,364.6 655.7,363.2 659.7,361.8 657.8,357.9 661.7,359.7 "/>
<line class="st4" x1="724.1" y1="504.8" x2="740.1" y2="504.8"/>
<line class="st4" x1="732.1" y1="496.8" x2="732.1" y2="512.8"/>
</svg>
