<?xml version="1.0" encoding="utf-8"?>
<!-- Generator: Adobe Illustrator 23.1.0, SVG Export Plug-In . SVG Version: 6.00 Build 0)  -->
<svg version="1.1"
	 id="svg2" sodipodi:docname="eye.ai" xmlns:cc="http://creativecommons.org/ns#" xmlns:dc="http://purl.org/dc/elements/1.1/" xmlns:inkscape="http://www.inkscape.org/namespaces/inkscape" xmlns:rdf="http://www.w3.org/1999/02/22-rdf-syntax-ns#" xmlns:sodipodi="http://sodipodi.sourceforge.net/DTD/sodipodi-0.dtd" xmlns:svg="http://www.w3.org/2000/svg"
	 xmlns="http://www.w3.org/2000/svg" xmlns:xlink="http://www.w3.org/1999/xlink" x="0px" y="0px" viewBox="0 0 933.33 933.33"
	 style="enable-background:new 0 0 933.33 933.33;" xml:space="preserve">
<style type="text/css">
	.st0{fill:none;stroke:#FFFFFF;stroke-width:20;stroke-linecap:square;stroke-linejoin:round;stroke-miterlimit:13.3333;}
	.st1{fill:none;stroke:#FFFFFF;stroke-width:20;stroke-miterlimit:13.3333;}
	.st2{fill:none;stroke:#FFFFFF;stroke-width:18.1698;stroke-miterlimit:13.3333;}
	.st3{fill:#FFFFFF;}
	.st4{fill:none;stroke:#FFFFFF;stroke-width:20;stroke-linecap:round;stroke-linejoin:round;stroke-miterlimit:13.3333;}
</style>
<sodipodi:namedview  bordercolor="#666666" borderopacity="1" gridtolerance="10" guidetolerance="10" id="namedview4" inkscape:pageopacity="0" inkscape:pageshadow="2" inkscape:window-height="480" inkscape:window-width="640" objecttolerance="10" pagecolor="#ffffff">
	</sodipodi:namedview>
<path id="path14" class="st0" d="M531.82,309.76L400.18,627.57"/>
<path id="path18" class="st0" d="M307.09,402.85l317.81,131.64"/>
<path id="path22" class="st0" d="M400.18,309.76l131.64,317.81"/>
<path id="path26" class="st0" d="M307.09,534.49l317.81-131.64"/>
<path id="path30" class="st0" d="M587.62,347.04L344.38,590.29"/>
<path id="path34" class="st0" d="M344.38,347.04l243.25,243.25"/>
<g id="g42">
	<g id="g48" transform="translate(220.2314,348.5)">
		<path id="path50" class="st1" d="M73.41,120.17c0-95.19,77.17-172.36,172.36-172.36c95.19,0,172.36,77.17,172.36,172.36
			c0,95.19-77.17,172.36-172.36,172.36C150.58,292.53,73.41,215.36,73.41,120.17z"/>
	</g>
	<g id="g52" transform="translate(103.9702,348.5)">
		<path id="path54" class="st2" d="M64.61,120.17c0.05,0,133.16,173.82,297.42,173.82c164.26,0,297.37-173.82,297.42-173.82
			c-0.05,0-133.16-173.82-297.42-173.82C197.77-53.66,64.66,120.17,64.61,120.17z"/>
	</g>
	<g id="g60" transform="translate(455.6426,348.5)">
		<path id="path62" class="st3" d="M151.88,120.17C45.74,139.71,29.9,155.55,10.36,261.69C-9.18,155.55-25.02,139.71-131.17,120.17
			C-25.02,100.63-9.18,84.79,10.36-21.36C29.9,84.79,45.74,100.63,151.88,120.17"/>
	</g>
	<g id="g64" transform="translate(455.6426,348.5)">
		<path id="path66" class="st0" d="M151.88,120.17C45.74,139.71,29.9,155.55,10.36,261.69C-9.18,155.55-25.02,139.71-131.17,120.17
			C-25.02,100.63-9.18,84.79,10.36-21.36C29.9,84.79,45.74,100.63,151.88,120.17z"/>
	</g>
	<g id="g68" transform="translate(287.0771,197.7979)">
		<path id="path70" class="st4" d="M95.69,471.8L48.68,585.3"/>
	</g>
	<g id="g72" transform="translate(447.21,584.3931)">
		<path id="path74" class="st4" d="M149.07-430.25l-47.05,113.59"/>
	</g>
	<g id="g76" transform="translate(542.3135,268.6338)">
		<path id="path78" class="st4" d="M180.77,306.52l57.39,23.77"/>
	</g>
	<g id="g80" transform="translate(113.3262,446.3262)">
		<path id="path82" class="st4" d="M37.78-108.09l57.81,23.95"/>
	</g>
	<g id="g84" transform="translate(411.9238,197.7959)">
		<path id="path86" class="st4" d="M137.31,471.81l46.97,113.39"/>
	</g>
	<g id="g88" transform="translate(251.8203,584.3198)">
		<path id="path90" class="st4" d="M83.94-430.08l47.01,113.49"/>
	</g>
	<g id="g92" transform="translate(542.3135,428.3662)">
		<path id="path94" class="st4" d="M180.77-66.19l57.24-23.71"/>
	</g>
	<g id="g96" transform="translate(114.0332,250.9668)">
		<path id="path98" class="st4" d="M38.01,347.74l56.87-23.56"/>
	</g>
	<g id="g100" transform="translate(224.3286,223.3281)">
		<path id="path102" class="st4" d="M74.78,412.23l-55.11,55.1"/>
	</g>
	<g id="g104" transform="translate(516,515)">
		<path id="path106" class="st4" d="M172-268.33l-55.11,55.11"/>
	</g>
	<g id="g108" transform="translate(474.6719,223.3281)">
		<path id="path110" class="st4" d="M158.22,412.23l55.77,55.77"/>
	</g>
	<g id="g112" transform="translate(182.5,515.5)">
		<path id="path114" class="st4" d="M60.83-269.5l55.77,55.77"/>
	</g>
	<g id="g116" transform="translate(349.5,189)">
		<path id="path118" class="st4" d="M116.5,492.33v232"/>
	</g>
	<g id="g120" transform="translate(349.5,682)">
		<path id="path122" class="st4" d="M116.5-658v232"/>
	</g>
	<g id="g124" transform="translate(622.4062,348.5)">
		<path id="path126" class="st4" d="M207.47,120.17h80.79"/>
	</g>
	<g id="g128" transform="translate(16,348.5)">
		<path id="path130" class="st4" d="M5.33,120.17h80.79"/>
	</g>
</g>
</svg>
