<?xml version="1.0" encoding="utf-8"?>
<!-- Generator: Adobe Illustrator 23.1.0, SVG Export Plug-In . SVG Version: 6.00 Build 0)  -->
<svg version="1.1" id="Layer_1" xmlns="http://www.w3.org/2000/svg" xmlns:xlink="http://www.w3.org/1999/xlink" x="0px" y="0px"
	 viewBox="0 0 16 16" style="enable-background:new 0 0 16 16;" xml:space="preserve">
<style type="text/css">
	.st0{fill:#FFFFFF;}
</style>
<path class="st0" d="M11,1c0.6,0,1,0.4,1,1v12c0,0.6-0.4,1-1,1H5c-0.6,0-1-0.4-1-1V2c0-0.6,0.4-1,1-1H11z M5,0C3.9,0,3,0.9,3,2v12
	c0,1.1,0.9,2,2,2h6c1.1,0,2-0.9,2-2V2c0-1.1-0.9-2-2-2H5z"/>
<path class="st0" d="M8,14c0.6,0,1-0.4,1-1s-0.4-1-1-1s-1,0.4-1,1S7.4,14,8,14z"/>
</svg>
